# xmcd
#
# Track frame offsets:
#	150
#	15400
#	28794
#	45078
#	61863
#	78096
#	94510
#	112527
#	126208
#	144474
#	159326
#	174349
#	191102
#	205767
#	223018
#
# Disc length: 3190 seconds
#
# Revision: 1
# Processed by: cddbd v1.5.1PL0 Copyright (c) Steve Scherf et al.
# Submitted via: audiograbber 1.83.01
#
DISCID=b00c740f
DTITLE=Doug Stone - CB90014
DYEAR=1900
DGENRE=Karaoke Country
TTITLE0=I'd Be Better Off IN  A Pine Box
TTITLE1=Fourteen Minutes Old
TTITLE2=These Lips Don't Know How To Say Goodbye
TTITLE3=In A Different Light
TTITLE4=I Thought It Was You
TTITLE5=Jukebox With A Country Song
TTITLE6=Come In Out Of The Pain
TTITLE7=Warning Labels
TTITLE8=Too Busy Being In Love
TTITLE9=Made For Lovin' You
TTITLE10=Why Didn't I Think Of That
TTITLE11=I Never Knew Love
TTITLE12=Addicted To A Dollar
TTITLE13=Little Houses
TTITLE14=Gone Out Of My Mind
EXTD=Chartbuster
EXTT0=
EXTT1=
EXTT2=
EXTT3=
EXTT4=
EXTT5=
EXTT6=
EXTT7=
EXTT8=
EXTT9=
EXTT10=
EXTT11=
EXTT12=
EXTT13=
EXTT14=
PLAYORDER=
